<?xml version="1.0" encoding="UTF-8" standalone="no"?>
<!-- Created with Inkscape (http://www.inkscape.org/) -->

<svg
   xmlns:dc="http://purl.org/dc/elements/1.1/"
   xmlns:cc="http://creativecommons.org/ns#"
   xmlns:rdf="http://www.w3.org/1999/02/22-rdf-syntax-ns#"
   xmlns:svg="http://www.w3.org/2000/svg"
   xmlns="http://www.w3.org/2000/svg"
   xmlns:sodipodi="http://sodipodi.sourceforge.net/DTD/sodipodi-0.dtd"
   xmlns:inkscape="http://www.inkscape.org/namespaces/inkscape"
   id="svg3390"
   version="1.1"
   inkscape:version="0.91 r13725"
   width="82.755264mm"
   height="73.500336mm"
   viewBox="0 0 293.22732 260.43426"
   sodipodi:docname="frandog.svg">
  <metadata
     id="metadata3396">
    <rdf:RDF>
      <cc:Work
         rdf:about="">
        <dc:format>image/svg+xml</dc:format>
        <dc:type
           rdf:resource="http://purl.org/dc/dcmitype/StillImage" />
        <dc:title></dc:title>
      </cc:Work>
    </rdf:RDF>
  </metadata>
  <defs
     id="defs3394">
    <inkscape:perspective
       sodipodi:type="inkscape:persp3d"
       inkscape:vp_x="0 : 339.99999 : 1"
       inkscape:vp_y="0 : 999.99998 : 0"
       inkscape:vp_z="452.99999 : 339.99999 : 1"
       inkscape:persp3d-origin="226.5 : 226.66667 : 1"
       id="perspective4430" />
  </defs>
  <sodipodi:namedview
     pagecolor="#ffffff"
     bordercolor="#666666"
     borderopacity="1"
     objecttolerance="10"
     gridtolerance="10"
     guidetolerance="10"
     inkscape:pageopacity="1"
     inkscape:pageshadow="2"
     inkscape:window-width="1375"
     inkscape:window-height="876"
     id="namedview3392"
     showgrid="false"
     inkscape:zoom="2.0130639"
     inkscape:cx="150.01659"
     inkscape:cy="109.13907"
     inkscape:window-x="65"
     inkscape:window-y="24"
     inkscape:window-maximized="1"
     inkscape:current-layer="layer13"
     fit-margin-top="5"
     fit-margin-left="5"
     fit-margin-right="5"
     fit-margin-bottom="5"
     units="mm" />
  <g
     inkscape:groupmode="layer"
     id="layer1"
     inkscape:label="background"
     style="display:none;opacity:0.73246687"
     transform="translate(17.895762,15.943457)" />
  <g
     inkscape:groupmode="layer"
     id="layer20"
     inkscape:label="F"
     transform="translate(17.895762,15.943457)" />
  <g
     inkscape:groupmode="layer"
     id="layer19"
     inkscape:label="body"
     style="display:inline"
     transform="translate(17.895762,15.943457)" />
  <g
     inkscape:groupmode="layer"
     id="layer15"
     inkscape:label="gi bottom"
     style="display:inline"
     transform="translate(17.895762,15.943457)" />
  <g
     inkscape:groupmode="layer"
     id="layer14"
     inkscape:label="gi"
     transform="translate(17.895762,15.943457)" />
  <g
     inkscape:groupmode="layer"
     id="layer17"
     inkscape:label="belt"
     transform="translate(17.895762,15.943457)" />
  <g
     inkscape:groupmode="layer"
     id="layer18"
     inkscape:label="pawsTail"
     transform="translate(17.895762,15.943457)" />
  <g
     inkscape:groupmode="layer"
     id="layer16"
     inkscape:label="giSleeves"
     transform="translate(17.895762,15.943457)" />
  <g
     inkscape:groupmode="layer"
     id="layer12"
     inkscape:label="knot"
     transform="translate(17.895762,15.943457)" />
  <g
     inkscape:groupmode="layer"
     id="layer10"
     inkscape:label="mouth"
     style="display:inline"
     transform="translate(17.895762,15.943457)" />
  <g
     inkscape:groupmode="layer"
     id="layer11"
     inkscape:label="face2"
     style="display:inline"
     transform="translate(17.895762,15.943457)" />
  <g
     inkscape:groupmode="layer"
     id="layer7"
     inkscape:label="whiteHead"
     style="display:inline"
     transform="translate(17.895762,15.943457)" />
  <g
     inkscape:groupmode="layer"
     id="layer8"
     inkscape:label="nose"
     style="display:inline"
     transform="translate(17.895762,15.943457)" />
  <g
     inkscape:groupmode="layer"
     id="layer9"
     inkscape:label="brownspot"
     style="display:inline"
     transform="translate(17.895762,15.943457)" />
  <g
     inkscape:groupmode="layer"
     id="layer2"
     inkscape:label="background2"
     style="display:inline;opacity:0.54799996"
     transform="translate(17.895762,15.943457)" />
  <g
     inkscape:groupmode="layer"
     id="layer4"
     inkscape:label="ear"
     style="display:inline"
     transform="translate(17.895762,15.943457)" />
  <g
     inkscape:groupmode="layer"
     id="layer5"
     inkscape:label="face"
     style="display:inline"
     transform="translate(17.895762,15.943457)" />
  <g
     inkscape:groupmode="layer"
     id="layer3"
     inkscape:label="dog"
     style="display:inline"
     transform="translate(17.895762,15.943457)" />
  <g
     inkscape:groupmode="layer"
     id="layer6"
     inkscape:label="eyes"
     style="display:inline"
     transform="translate(17.895762,15.943457)" />
  <g
     inkscape:groupmode="layer"
     id="layer13"
     inkscape:label="whisker"
     transform="translate(17.895762,15.943457)">
    <g
       id="g4301"
       transform="translate(-14.849242,-31.112698)" />
    <g
       id="g4310"
       transform="matrix(0.62019646,0,0,0.62228051,-13.000285,-139.58131)">
      <path
         style="fill:#f4f22d;fill-opacity:1;fill-rule:evenodd;stroke:#000000;stroke-width:1.60969007px;stroke-linecap:butt;stroke-linejoin:miter;stroke-opacity:1"
         d="m 87.296379,518 361.577161,-2 -127.73106,102 -61.90044,1 86.46411,-68 -48.14479,-0.5 -43.23206,31 -51.09242,1 48.14479,-30.5 -213.212623,-1.5 z"
         id="path4240"
         inkscape:connector-curvature="0"
         transform="translate(-14.849242,-31.112698)" />
      <path
         style="display:inline;fill:#ffffff;fill-opacity:1;fill-rule:evenodd;stroke:#000000;stroke-width:1.60969007px;stroke-linecap:butt;stroke-linejoin:miter;stroke-opacity:1"
         d="m 216.64928,362.33896 91.21677,-36.76955 -17.67767,81.31728 -54.44722,28.99138 -24.74874,-26.16295 z"
         id="path4351"
         inkscape:connector-curvature="0"
         transform="translate(-14.849242,-31.112698)" />
      <path
         style="display:inline;fill:#ffffff;fill-opacity:1;fill-rule:evenodd;stroke:#000000;stroke-width:1.60969007px;stroke-linecap:butt;stroke-linejoin:miter;stroke-opacity:1"
         d="m 299,376.5 3.5,17.5 -13,77 c 0,0 12,12.5 6.5,27.5 l 8,14 c 0,0 -16.5,36.5 -70,28 L 231.5,529 273,406.5 Z"
         id="path4294"
         inkscape:connector-curvature="0"
         transform="translate(-14.849242,-31.112698)" />
      <path
         style="display:inline;fill:#ffffff;fill-opacity:1;fill-rule:evenodd;stroke:#000000;stroke-width:1.60969007px;stroke-linecap:butt;stroke-linejoin:miter;stroke-opacity:1"
         d="m 220,384.5 30,33 10,28.5 -33,84.5 c 0,0 -12.1066,32.76777 -69.6066,5.76777 0,0 -5.8934,6.98223 -22.3934,3.48223 0,0 4.75,-23 9,-36 0,0 20,-55.75 32,-59.75 0,0 -1,-42.5 5.5,-43 z"
         id="path4296"
         inkscape:connector-curvature="0"
         sodipodi:nodetypes="cccccccccc"
         transform="translate(-14.849242,-31.112698)" />
      <path
         style="display:inline;fill:none;fill-rule:evenodd;stroke:#000000;stroke-width:0.96581405;stroke-linecap:butt;stroke-linejoin:miter;stroke-miterlimit:4;stroke-dasharray:none;stroke-opacity:1"
         d="m 238.92314,389.20902 c 0,0 3.18198,-8.13173 8.83884,-9.54594 0,0 9.54594,-2.82843 9.54594,-5.65686"
         id="path4359"
         inkscape:connector-curvature="0"
         transform="translate(-14.849242,-31.112698)" />
      <path
         style="display:inline;fill:none;fill-rule:evenodd;stroke:#000000;stroke-width:0.96581405;stroke-linecap:butt;stroke-linejoin:miter;stroke-miterlimit:4;stroke-dasharray:none;stroke-opacity:1"
         d="m 250.54432,392.15956 c 0,0 0.46816,-9.48866 6.14472,-13.19865 0,0 9.41501,-6.70651 8.36445,-9.56021"
         id="path4359-3"
         inkscape:connector-curvature="0"
         transform="translate(-14.849242,-31.112698)" />
      <path
         style="display:inline;fill:none;fill-rule:evenodd;stroke:#000000;stroke-width:0.96581405;stroke-linecap:butt;stroke-linejoin:miter;stroke-miterlimit:4;stroke-dasharray:none;stroke-opacity:1"
         d="m 246.04112,389.78686 c 0,0 2.02914,-8.49309 7.43666,-10.67456 0,0 9.06418,-4.11893 8.67379,-6.92029"
         id="path4359-6"
         inkscape:connector-curvature="0"
         transform="translate(-14.849242,-31.112698)" />
      <path
         style="display:inline;fill:none;fill-rule:evenodd;stroke:#000000;stroke-width:0.96581405;stroke-linecap:butt;stroke-linejoin:miter;stroke-miterlimit:4;stroke-dasharray:none;stroke-opacity:1"
         d="m 237.13818,385.40561 c 0,0 3.18198,-8.13173 8.83884,-9.54594 0,0 9.54594,-2.82843 9.54594,-5.65686"
         id="path4359-7"
         inkscape:connector-curvature="0"
         transform="translate(-14.849242,-31.112698)" />
      <path
         style="display:inline;fill:none;fill-rule:evenodd;stroke:#000000;stroke-width:0.64387602;stroke-linecap:butt;stroke-linejoin:miter;stroke-miterlimit:4;stroke-dasharray:none;stroke-opacity:1"
         d="m 267.56097,368.34937 c 0,0 -5.65686,7.42462 -3.18198,15.20279 l 4.24264,4.94975 c 0,0 -3.53554,-3.18198 -2.12132,-8.83883 0,0 -0.35356,-6.36396 2.47487,-7.07107 0,0 -3.53553,0.70711 0.35355,6.36396 0,0 -0.35355,-6.36396 6.71752,-12.72792 2.47487,16.61701 1.76777,12.72792 0.35355,16.97056 0,0 8.48528,-10.6066 6.36396,-15.55635 -2.12132,-4.94975 -2.12132,-4.94975 -2.12132,-4.94975"
         id="path4388"
         inkscape:connector-curvature="0"
         transform="translate(-14.849242,-31.112698)" />
      <path
         style="display:inline;fill:none;fill-rule:evenodd;stroke:#000000;stroke-width:1.12678301;stroke-linecap:butt;stroke-linejoin:miter;stroke-miterlimit:4;stroke-dasharray:none;stroke-opacity:1"
         d="m 283.11732,361.2783 c 0,0 4.94974,9.19239 3.88908,12.02082"
         id="path4390"
         inkscape:connector-curvature="0"
         transform="translate(-14.849242,-31.112698)" />
      <path
         style="fill:#ffffff;fill-opacity:1;fill-rule:evenodd;stroke:#000000;stroke-width:1.60969007px;stroke-linecap:butt;stroke-linejoin:miter;stroke-opacity:1"
         d="m 218.25,541.25 15.25,-1.5 c 8.5,-83.5 66,-156.75 68,-155.25 l 6,-27.5 -13.9375,11.9375 c 0,0 -70.0625,72.8125 -75.5625,172.3125"
         id="path4282"
         inkscape:connector-curvature="0"
         sodipodi:nodetypes="cccccc"
         transform="translate(-14.849242,-31.112698)" />
      <path
         style="fill:#ffffff;fill-opacity:1;fill-rule:evenodd;stroke:#000000;stroke-width:1.60969007px;stroke-linecap:butt;stroke-linejoin:miter;stroke-opacity:1"
         d="M 258.40656,416.28694 250,432.5 C 251,424 238.5,414 238.5,414 l -11.57657,-24.93838 c 0,0 28.28368,18.82226 31.48313,27.22532 z"
         id="path4284"
         inkscape:connector-curvature="0"
         sodipodi:nodetypes="ccccc"
         transform="translate(-14.849242,-31.112698)" />
      <path
         style="fill:none;fill-rule:evenodd;stroke:#000000;stroke-width:1.60969007px;stroke-linecap:butt;stroke-linejoin:miter;stroke-opacity:1"
         d="M 301.25,383.25 Z"
         id="path4288"
         inkscape:connector-curvature="0"
         transform="translate(-14.849242,-31.112698)" />
      <path
         style="fill:#0000ff;fill-opacity:1;fill-rule:evenodd;stroke:#000000;stroke-width:1.60969007px;stroke-linecap:butt;stroke-linejoin:miter;stroke-opacity:1"
         d="m 157.95942,465.223 c 0,0 4.59619,-15.2028 9.89949,-14.84924 0,0 90.86322,38.89087 119.14749,13.08147 0,0 7.07107,10.25305 7.07107,13.08148 l 0,0 c 0,0 -9.54594,27.93072 -136.11805,-11.31371 z"
         id="path4304"
         inkscape:connector-curvature="0"
         transform="translate(-14.849242,-31.112698)" />
      <path
         style="fill:#ffffff;fill-opacity:1;fill-rule:evenodd;stroke:#000000;stroke-width:1.60969007px;stroke-linecap:butt;stroke-linejoin:miter;stroke-opacity:1"
         d="m 186.5,539.25 c 0,0 -9,12.75 -7.5,16.5 0,0 4.75,8 9.25,5.75 0,0 19.25,5.75 20,2 0,0 14,2.25 14,-2.5 0,0 2.75,-9 -2.5,-11.25 0,0 -11,-11.25 -11,-13.5 z"
         id="path4327"
         inkscape:connector-curvature="0"
         transform="translate(-14.849242,-31.112698)" />
      <path
         style="fill:none;fill-rule:evenodd;stroke:#000000;stroke-width:1.60969007px;stroke-linecap:butt;stroke-linejoin:miter;stroke-opacity:1"
         d="m 189.25,559 -0.25,3.5 2,-3.25 z"
         id="path4329"
         inkscape:connector-curvature="0"
         transform="translate(-14.849242,-31.112698)" />
      <path
         style="fill:none;fill-rule:evenodd;stroke:#000000;stroke-width:1.60969007px;stroke-linecap:butt;stroke-linejoin:miter;stroke-opacity:1"
         d="m 207.5,561.5 1.25,3.25 0.75,-3 z"
         id="path4331"
         inkscape:connector-curvature="0"
         transform="translate(-14.849242,-31.112698)" />
      <path
         style="fill:none;fill-rule:evenodd;stroke:#000000;stroke-width:1.60969007px;stroke-linecap:butt;stroke-linejoin:miter;stroke-opacity:1"
         d="m 220.5,560.5 2.75,2.5 -3,-4.75 z"
         id="path4333"
         inkscape:connector-curvature="0"
         transform="translate(-14.849242,-31.112698)" />
      <path
         style="display:inline;opacity:1;fill:#ffffff;fill-opacity:1;fill-rule:evenodd;stroke:#000000;stroke-width:1.60969007px;stroke-linecap:butt;stroke-linejoin:miter;stroke-opacity:1"
         d="m 253.77238,542.65119 -3.53553,4.24264 -7.07107,2.12132 1.76777,1.06066 8.83883,-4.24264 c 0,0 -10.96015,6.36396 -10.96015,8.13173 l 11.66726,-7.42462 -0.70711,4.94975 -1.06066,3.18198 c 0,0 22.62742,7.07106 22.62742,4.24264 0,0 10.6066,1.76776 14.14214,-1.06066 l 6.36396,-1.41422 -1.06066,-1.06066 2.47487,-3.53553 -3.18198,-2.12132 c 0,0 -7.42462,-11.66726 -14.84924,-11.31371 l -9.19239,-26.16295 z"
         id="path4335"
         inkscape:connector-curvature="0"
         transform="translate(-14.849242,-31.112698)" />
      <path
         style="fill:none;fill-rule:evenodd;stroke:#000000;stroke-width:1.60969007px;stroke-linecap:butt;stroke-linejoin:miter;stroke-opacity:1"
         d="m 273.57137,558.56109 1.06066,2.12132 0.35356,-5.3033 z"
         id="path4338"
         inkscape:connector-curvature="0"
         transform="translate(-14.849242,-31.112698)" />
      <path
         style="fill:none;fill-rule:evenodd;stroke:#000000;stroke-width:1.60969007px;stroke-linecap:butt;stroke-linejoin:miter;stroke-opacity:1"
         d="m 287.35996,556.43977 3.88908,3.18198 -2.82842,-4.94974 z"
         id="path4340"
         inkscape:connector-curvature="0"
         transform="translate(-14.849242,-31.112698)" />
      <path
         style="fill:none;fill-rule:evenodd;stroke:#000000;stroke-width:1.60969007px;stroke-linecap:butt;stroke-linejoin:miter;stroke-opacity:1"
         d="m 294.07747,554.67201 5.3033,0 -6.71751,-2.12132 z"
         id="path4342"
         inkscape:connector-curvature="0"
         transform="translate(-14.849242,-31.112698)" />
      <path
         style="fill:#ffffff;fill-opacity:1;fill-rule:evenodd;stroke:#000000;stroke-width:1.60969007px;stroke-linecap:butt;stroke-linejoin:miter;stroke-opacity:1"
         d="m 286.5,533.5 c 0,0 19.5,3.5 20.5,6 l -1.22272,-3.94975 2.35876,-1.08578 L 316,536 l -6,-2.5 7.5,-3 0,-1 c 0,0 4,-19 -18.5,-12.5 l -20.5,10 z"
         id="path4344"
         inkscape:connector-curvature="0"
         sodipodi:nodetypes="ccccccccccc"
         transform="translate(-14.849242,-31.112698)" />
      <path
         style="fill:none;fill-rule:evenodd;stroke:#000000;stroke-width:1.60969007px;stroke-linecap:butt;stroke-linejoin:miter;stroke-opacity:1"
         d="m 316.5,528.5 4.5,2 -9,0 z"
         id="path4346"
         inkscape:connector-curvature="0"
         transform="translate(-14.849242,-31.112698)" />
      <path
         style="fill:none;fill-rule:evenodd;stroke:#000000;stroke-width:1.60969007px;stroke-linecap:butt;stroke-linejoin:miter;stroke-opacity:1"
         d="m 307,533 10.5,0.5 -6.5,-2 z"
         id="path4348"
         inkscape:connector-curvature="0"
         transform="translate(-14.849242,-31.112698)" />
      <path
         style="fill:#ffffff;fill-opacity:1;fill-rule:evenodd;stroke:#000000;stroke-width:1.60969007px;stroke-linecap:butt;stroke-linejoin:miter;stroke-opacity:1"
         d="m 301.94403,384.25927 c 0,0 4.55597,58.24073 -22.44403,111.74073 l 2,4.5 c 0,0 2.5,1.5 -5,2 l 7.5,2.5 -5,7 3,8 9.5,5 c 0,0 -20.5,30 -38,17 l -4.5,-5 4,-6.5 -2.5,-3.5 4.5,-12 -2.5,-3.5 2.5,-9.5 -2.5,-3.5 5,-14.5 c 0,0 11.5,-40 16.5,-48"
         id="path4290"
         inkscape:connector-curvature="0"
         transform="translate(-14.849242,-31.112698)" />
      <path
         style="fill:#ffffff;fill-opacity:1;fill-rule:evenodd;stroke:#000000;stroke-width:1.60969007px;stroke-linecap:butt;stroke-linejoin:miter;stroke-opacity:1"
         d="m 189.5,420.5 c 0,0 -14,53 -8,74.5 l -5.5,9 7.5,7.5 -6.5,5 2,4.5 1.5,5.5 -3,3.5 2.5,11.5 c 0,0 29.5,5 34.5,-0.5 l 3.5,-9 -6,-2.5 5.5,-11 -5,-5.5 3.5,-13 c 0,0 -4,-63 0,-70.5 z"
         id="path4298"
         inkscape:connector-curvature="0"
         transform="translate(-14.849242,-31.112698)" />
      <path
         style="fill:none;fill-rule:evenodd;stroke:#000000;stroke-width:1.60969007px;stroke-linecap:butt;stroke-linejoin:miter;stroke-opacity:1"
         d="m 176.5,502.75 c 0,0 6.25,5 17.75,4"
         id="path4306"
         inkscape:connector-curvature="0"
         transform="translate(-14.849242,-31.112698)" />
      <path
         style="fill:none;fill-rule:evenodd;stroke:#000000;stroke-width:1.60969007px;stroke-linecap:butt;stroke-linejoin:miter;stroke-opacity:1"
         d="m 216,500 c 0,0 -10,17.75 -16.5,17.75"
         id="path4308"
         inkscape:connector-curvature="0"
         transform="translate(-14.849242,-31.112698)" />
      <path
         style="fill:none;fill-rule:evenodd;stroke:#000000;stroke-width:1.60969007px;stroke-linecap:butt;stroke-linejoin:miter;stroke-opacity:1"
         d="m 177.5,516.25 c 0,0 2.75,4.5 12,5.25"
         id="path4310"
         inkscape:connector-curvature="0"
         transform="translate(-14.849242,-31.112698)" />
      <path
         style="fill:none;fill-rule:evenodd;stroke:#000000;stroke-width:1.60969007px;stroke-linecap:butt;stroke-linejoin:miter;stroke-opacity:1"
         d="m 211.25,529 c 0,0 -0.25,3.5 -9.75,3.25"
         id="path4312"
         inkscape:connector-curvature="0"
         transform="translate(-14.849242,-31.112698)" />
      <path
         style="fill:none;fill-rule:evenodd;stroke:#000000;stroke-width:1.60969007px;stroke-linecap:butt;stroke-linejoin:miter;stroke-opacity:1"
         d="m 253,510.75 c 0,0 6.75,4.75 12.75,2"
         id="path4314"
         inkscape:connector-curvature="0"
         transform="translate(-14.849242,-31.112698)" />
      <path
         style="fill:none;fill-rule:evenodd;stroke:#000000;stroke-width:1.60969007px;stroke-linecap:butt;stroke-linejoin:miter;stroke-opacity:1"
         d="m 279.75,496.25 c 0,0 -1.25,4.5 -9.5,6.5"
         id="path4316"
         inkscape:connector-curvature="0"
         transform="translate(-14.849242,-31.112698)" />
      <path
         style="fill:none;fill-rule:evenodd;stroke:#000000;stroke-width:1.60969007px;stroke-linecap:butt;stroke-linejoin:miter;stroke-opacity:1"
         d="m 278,512.75 c 0,0 0.25,8 -10,11.75"
         id="path4318"
         inkscape:connector-curvature="0"
         transform="translate(-14.849242,-31.112698)" />
      <path
         style="fill:none;fill-rule:evenodd;stroke:#000000;stroke-width:1.60969007px;stroke-linecap:butt;stroke-linejoin:miter;stroke-opacity:1"
         d="m 252.75,530.75 c 0,0 20.25,11.75 25.5,3"
         id="path4320"
         inkscape:connector-curvature="0"
         transform="translate(-14.849242,-31.112698)" />
      <path
         style="fill:#0000ff;fill-opacity:1;fill-rule:evenodd;stroke:#000000;stroke-width:1.60969007px;stroke-linecap:butt;stroke-linejoin:miter;stroke-opacity:1"
         d="m 228.31654,468.05143 c 0,0 6.71751,-4.94975 8.48528,-2.47488 0,0 4.5962,16.61701 -0.35355,21.21321 0,0 6.71751,1.06066 7.77817,-0.70711 l 5.65686,-16.97056 c 0,0 -8.83884,-3.53554 -12.37437,-1.06066"
         id="path4231"
         inkscape:connector-curvature="0"
         transform="translate(-14.849242,-31.112698)" />
      <path
         style="fill:#0000ff;fill-opacity:1;fill-rule:evenodd;stroke:#000000;stroke-width:1.60969007px;stroke-linecap:butt;stroke-linejoin:miter;stroke-opacity:1"
         d="m 236.80182,468.40498 c 0,0 -20.5061,-8.13173 -22.98097,20.85965 0,0 -1.06066,2.12132 1.41421,10.96015 2.47488,8.83884 2.47488,8.83884 2.47488,8.83884 l 0,0 L 225.25,509.5 c 0,0 -9,-26.75 10.25,-22.5 l 1.4786,-1.44768 c 0,0 3.71231,-15.20279 -0.17678,-17.14734 z"
         id="path4234"
         inkscape:connector-curvature="0"
         transform="translate(-14.849242,-31.112698)" />
      <path
         style="fill:#0000ff;fill-opacity:1;fill-rule:evenodd;stroke:#000000;stroke-width:1.60969007px;stroke-linecap:butt;stroke-linejoin:miter;stroke-opacity:1"
         d="m 249.5,469.75 c 0,0 22.25,9.75 13.25,25.75 l -7.75,8.75 c 0,0 0.25,-25 -9.5,-18.5 z"
         id="path4236"
         inkscape:connector-curvature="0"
         transform="translate(-14.849242,-31.112698)" />
      <path
         style="display:inline;fill:#ffffff;fill-opacity:1;fill-rule:evenodd;stroke:#000000;stroke-width:1.60969007px;stroke-linecap:butt;stroke-linejoin:miter;stroke-opacity:1"
         d="m 264.37899,366.05127 c 0,0 6.18718,1.94455 7.95495,-0.35355 0,0 5.79106,-6.57272 8.41606,-6.94772 0,0 6.125,1 7.75,-1.375 l 0,-15.375 c 0,0 -22,-6 -22,-3 0,3 -9.5,13.5 -9.5,13.5 z"
         id="path4219"
         inkscape:connector-curvature="0"
         transform="translate(-14.849242,-31.112698)" />
      <path
         style="display:inline;fill:#cf6a0b;fill-opacity:1;fill-rule:evenodd;stroke:#cf6c0b;stroke-width:1.60969007px;stroke-linecap:butt;stroke-linejoin:miter;stroke-opacity:1"
         d="m 246.75,275.75 4.5,-1.5 -1.75,2 5.25,-2.75 -0.25,2.25 5.5,-3.5 0,1.5 6.5,-1.5 c 0,0 45.25,38 23.75,70.5 l -35.5,-26 L 240,293 Z"
         id="path4233"
         inkscape:connector-curvature="0"
         transform="translate(-14.849242,-31.112698)" />
      <path
         style="display:inline;fill:#cf6a0b;fill-opacity:1;fill-rule:evenodd;stroke:#d06f0b;stroke-width:1.60969007px;stroke-linecap:butt;stroke-linejoin:miter;stroke-opacity:1"
         d="m 221.24547,288.97663 1.76777,-3.0052 0.35355,1.06066 1.94455,-1.76777 0,0.53033 4.06586,-2.82843 0.17678,0 3.0052,-2.12132 0,1.23744 4.06587,-2.82843 0,0 3.0052,-1.94454 13.25825,1.06066 -35.53211,24.39518 6.71751,-9.72271 5.48008,-4.24264 -6.89429,1.41421 z"
         id="path4235"
         inkscape:connector-curvature="0"
         transform="translate(-14.849242,-31.112698)" />
      <path
         style="display:inline;opacity:1;fill:#ffffff;fill-opacity:1;fill-rule:evenodd;stroke:#000000;stroke-width:1.60969007px;stroke-linecap:butt;stroke-linejoin:miter;stroke-opacity:1"
         d="m 244.58,364.81384 c 0,0 18.03122,11.3137 20.50609,-1.76777 0,0 1.06066,-21.92031 22.98097,-10.96016 0,0 1.41422,14.14214 5.3033,-3.88908 0,0 1.41422,-7.42463 -3.53553,-10.25305 l -13.78858,-14.49569 -22.27387,-12.02082 -1.41421,-9.54594 -0.70711,0 0,-3.88909 -1.76776,0 1.06066,-5.65685 -1.76777,0 0.70711,-4.94975 -2.82843,-0.35355 -0.35355,-4.5962 -1.76777,-0.35355 2.12132,-7.42462 -2.47487,2.47487 0,-1.41421 -3.18198,3.18198 0,-2.12132 c 0,0 -14.14214,12.37437 -16.97057,12.72792 -2.82842,0.35356 -2.82842,0.35356 -2.82842,0.35356 l 1.06066,1.41421 -4.94975,1.06066 1.06066,0.70711 c 0,0 13.43504,69.29647 25.8094,71.77134 z"
         id="path4209"
         inkscape:connector-curvature="0"
         transform="translate(-14.849242,-31.112698)" />
      <path
         style="display:inline;fill:#000000;fill-opacity:1;fill-rule:evenodd;stroke:#000000;stroke-width:1.60969007px;stroke-linecap:butt;stroke-linejoin:miter;stroke-opacity:1"
         d="m 257.3125,330.3125 c 0,0 -5.6875,4.375 -3.4375,8.0625 l 2.8125,4.0625 c 0,0 4.75,-3.375 4.25,-4.25 0,0 -2.875,-3.6875 -0.8125,-3.9375 0,0 3.8125,1.5 3.0625,6.3125 l -2.75,0.375 L 259.375,342 c 0,0 4.1875,4.5625 8.625,-0.0625 0,0 6.3125,-4.5 4.6875,-7.625 0,0 -5.9375,1.625 -6.125,-0.0625 0,0 -2.1875,-4.9375 1.0625,-2.0625 0,0 3.125,3.3125 4.375,-0.875 0,0 -2.9375,-4.75 -4.25,-4.4375 0,0 -5.5625,-1.0625 -5.875,0 z"
         id="path4214"
         inkscape:connector-curvature="0"
         transform="translate(-14.849242,-31.112698)" />
      <path
         style="display:inline;fill:#cf7118;fill-opacity:1;fill-rule:evenodd;stroke:#cf6a0b;stroke-width:1.60969007px;stroke-linecap:butt;stroke-linejoin:miter;stroke-opacity:1"
         d="m 246,359.75 c 0,0 4.5,-12 4,-16.5 l 4.25,-1.75 -0.5,2 2,0 0.75,1.25 4,0.25 0,1.75 2.25,0.5 2.25,4.25 2,1.75 c 0,0 -1,15.75 -5.75,16.5 0,0 -15.25,-0.25 -15.25,-10 z"
         id="path4217"
         inkscape:connector-curvature="0"
         transform="translate(-14.849242,-31.112698)" />
      <path
         style="display:inline;fill:#cf6a0b;fill-opacity:1;fill-rule:evenodd;stroke:#dc6a0b;stroke-width:1.60969007px;stroke-linecap:butt;stroke-linejoin:miter;stroke-opacity:1"
         d="m 216.27874,293.73026 c 0,0 -8.35248,8.29997 -8.35248,11.75829 l -16.70498,13.83328 5.56832,-2.76665 -7.65643,8.29997 9.74456,-8.99163 -6.96039,9.68329 6.26436,-5.5333 -10.44063,9.68329 7.65645,-3.45832 c 0,0 -12.52871,20.05825 -15.31287,24.20823 l 13.92079,-17.98326 -12.52872,22.13326 10.44062,-15.21661 -11.83269,22.13324 11.13663,-17.2916 c 0,0 -7.65644,26.28323 -11.83268,31.12489 l 9.04853,-15.21661 -9.04853,27.66655 6.96039,-13.14162 -9.04852,21.4416 4.87228,-2.07501 -5.56831,11.06664 5.56831,-4.14998 -4.87228,10.37496 4.87228,-7.6083 -1.39207,7.6083 3.48021,-3.45832 c 0,0 -11.13666,17.29159 -2.08814,27.66657 l -1.39207,-10.37498 5.56831,13.14163 -2.78415,-12.44996 7.65644,17.29159 4.17624,-8.99163 -2.08811,7.60831 3.48019,-4.14999 0,6.91665 10.44062,-3.45832 -1.3921,3.45832 7.65645,-2.07499 -0.69603,4.14998 c 0,0 27.84161,-15.21661 24.36142,-24.20825 l 1.39207,11.06663 c 0,0 5.56832,-26.97489 -6.26436,-38.04152 0,0 -8.35249,-15.21662 -3.48021,-26.28324 0,0 -16.70496,-34.5832 -9.04853,-42.1915 z"
         id="path3594"
         inkscape:connector-curvature="0"
         transform="translate(-14.849242,-31.112698)" />
      <path
         style="display:inline;opacity:1;fill:#cf6a0b;fill-opacity:1;fill-rule:evenodd;stroke:#dc6b0b;stroke-width:1.60969007px;stroke-linecap:butt;stroke-linejoin:miter;stroke-opacity:1"
         d="m 258.89891,273.77384 c 0,0 6.89429,-3.35876 7.77817,-7.6014 l -0.7071,4.59619 c 0,0 5.65685,-6.18718 3.35875,-12.19759 0,0 2.2981,5.65685 0.35356,10.6066 l 4.24264,-6.89429 -3.35876,7.07107 5.83363,-4.77297 -4.24264,5.65685 5.12653,-3.0052 -2.47488,2.65165 5.12653,-1.59099 -2.12132,2.47487 c 0,0 0,-1.23743 3.88908,-0.7071 l -6.36396,3.71231 c 0,0 6.01041,-4.06587 10.07627,-2.82843 l -6.54073,2.82843 4.06586,0 -2.12132,1.23743 c 0,0 1.06066,-2.29809 6.01041,0 l -1.06066,1.41422 c 0,0 23.68807,14.14213 22.62741,18.9151 l -3.88908,-3.35875 c 0,0 15.55635,18.38477 17.14734,26.33972 L 316.75,313.5 l 6,10.25 -3.5,-2 c 0,0 9.5,8.75 9.75,12.75 l -3.5,-0.75 6.75,6.75 -5.5,-3.75 1.75,4.75 -2.75,-2.5 5.5,8.75 L 327,344 c 0,0 0.25,13 9.75,20 l -10,-7.75 c 0,0 11.75,10.75 11.75,16 l -6.5,-7 c 0,0 14.25,17 10.25,21.5 0,0 -3.5,-12 -7.25,-13.5 0,0 3.75,8.25 3.75,11 0,0 -3.75,-10.25 -7.25,-10.75 l 4.25,9 -5.5,-5.5 c 0,0 5,12 3.25,14.25 0,0 -2.25,-10 -6.25,-10.25 0,0 6,9.25 4,13.5 0,0 -4.25,-13 -8.75,-13 0,0 7,8.5 6.25,12.5 0,0 -3.5,-8.5 -7.25,-7.5 0,0 4.25,4 4.25,8 0,0 -6,-8.25 -8.5,-5.75 l 3.75,3.25 -4.75,-0.25 -1.5,4.25 -1.75,-2.75 0.25,2.5 -2.75,-1.25 c 0,0 -9.5,-2.75 -10,-8.5 l -1.5,-5.75 c 0,0 -11.75,-16.25 -9.5,-21.25 -0.0309,0.009 4.53649,-5.33185 4.75,-12.25 1.70889,-4.84692 -6.84355,-15.08151 -6.75,-20.75 0,0 0.5,-13.5 -2.75,-20.25 0,0 -1.63268,-15.88948 -7.99665,-16.59659 l -3.88908,-2.47487 0.7071,-4.24265 -4.24264,0 1.06066,-3.18198 -2.12132,3.88909 -0.35355,-3.53553 0.0884,-1.14905 c 0,0 -1.32583,1.41421 -0.88388,3.18198 0,0 -1.94456,-0.35355 -1.41423,-2.91682 l -1.06066,0.97228 0,-2.38649 -1.5026,1.32583 0.17678,-4.24265 -4.50781,2.2981 z"
         id="path4229"
         inkscape:connector-curvature="0"
         sodipodi:nodetypes="ccccccccccccccccccccccccccccccccccccccccccccccccccccccccccccccccccccccccccccccccc"
         transform="translate(-14.849242,-31.112698)" />
      <path
         style="display:inline;fill:#cf6a0b;fill-opacity:1;fill-rule:evenodd;stroke:#cf6a0b;stroke-width:1.60969007px;stroke-linecap:butt;stroke-linejoin:miter;stroke-opacity:1"
         d="m 213.9382,300.68948 5.15628,-7.38794 1.01771,2.61831 4.52683,2.06128 -5.66514,0.67708 10.07134,0.67709 -6.29459,4.73963 7.55351,0 -1.88837,0.67708 8.18297,3.38544 c 0,0 13.21863,13.54177 9.44188,20.98972 0,0 -1.88838,5.41672 -1.25891,12.1876 0,0 -7.55352,12.86466 -1.25892,24.37516 0,0 -16.9954,2.70837 -22.03107,-2.70835 0,0 -19.51324,-53.48996 -7.55352,-62.2921 z"
         id="path4422"
         inkscape:connector-curvature="0"
         sodipodi:nodetypes="ccccccccccccccc"
         transform="translate(-14.849242,-31.112698)" />
      <g
         id="g4414"
         style="display:inline;stroke:#cf780b;stroke-width:1.31862104;stroke-opacity:1"
         transform="matrix(1,0,0,1.4902,128.15076,151.56151)">
        <path
           inkscape:connector-curvature="0"
           id="path4404"
           d="m 67.345255,92.599725 c 0,0 -12.627236,-0.467676 -8.418157,13.562585 0,0 7.950481,3.7414 5.144429,16.83631 0,0 -11.691885,15.43329 9.821183,33.20496"
           style="fill:none;fill-rule:evenodd;stroke:#cf780b;stroke-width:1.31862104px;stroke-linecap:butt;stroke-linejoin:miter;stroke-opacity:1" />
        <path
           inkscape:connector-curvature="0"
           id="path4406"
           d="m 69.215956,97.276478 c 0,0 -6.07978,-1.870701 -4.209078,5.612102 0,0 10.288858,14.03026 5.612104,25.25447 0,0 -4.209078,8.41816 5.612105,17.77167"
           style="fill:none;fill-rule:evenodd;stroke:#cf780b;stroke-width:1.31862104px;stroke-linecap:butt;stroke-linejoin:miter;stroke-opacity:1" />
        <path
           inkscape:connector-curvature="0"
           id="path4408"
           d="m 59.394773,122.53095 c 0,0 -12.627235,18.70701 1.870702,35.07565 0,0 10.756533,6.07978 0.467675,15.43329"
           style="fill:none;fill-rule:evenodd;stroke:#cf780b;stroke-width:1.31862104px;stroke-linecap:butt;stroke-linejoin:miter;stroke-opacity:1" />
        <path
           inkscape:connector-curvature="0"
           id="path4410"
           d="m 57.991747,109.90371 c 0,0 -9.353508,21.98075 -7.950481,44.89684 0,0 5.612104,0.93535 5.612104,9.35351"
           style="fill:none;fill-rule:evenodd;stroke:#cf780b;stroke-width:1.31862104px;stroke-linecap:butt;stroke-linejoin:miter;stroke-opacity:1" />
        <path
           inkscape:connector-curvature="0"
           id="path4412"
           d="m 76.698762,119.7249 c 0,0 2.806052,9.3535 -1.403026,14.03026 0,0 -2.806052,14.03026 10.756534,17.30399"
           style="fill:none;fill-rule:evenodd;stroke:#cf780b;stroke-width:1.31862104px;stroke-linecap:butt;stroke-linejoin:miter;stroke-opacity:1" />
      </g>
      <g
         style="display:inline"
         id="g4204"
         transform="translate(126.05115,198.41637)">
        <g
           transform="translate(0.5,-0.5)"
           id="g4201">
          <path
             style="display:inline;fill:#000000;fill-opacity:1;fill-rule:evenodd;stroke:#000000;stroke-width:1.60968995px;stroke-linecap:butt;stroke-linejoin:miter;stroke-opacity:1"
             d="m 84.588389,102.47032 c 0,0 17.010931,5.71795 17.796051,-4.838265 0,0 -13.347038,-21.112454 -17.796051,4.838265 z"
             id="path4426"
             inkscape:connector-curvature="0" />
        </g>
        <ellipse
           ry="1.0170454"
           rx="1.7612501"
           cy="47.771095"
           cx="45.333321"
           id="path4199"
           style="opacity:1;fill:#ffffff;fill-opacity:1;stroke:#ffffff;stroke-width:6.4387598;stroke-miterlimit:4;stroke-dasharray:none;stroke-opacity:1" />
      </g>
      <path
         style="display:inline;fill:#000000;fill-opacity:1;fill-rule:evenodd;stroke:#000000;stroke-width:1.60969007px;stroke-linecap:butt;stroke-linejoin:miter;stroke-opacity:1"
         d="m 266.92245,310.03236 c 0,0 4.86977,8.84051 10.55118,1.44926 0,0 0.94689,-1.88404 1.48798,-6.23183 l 2.02907,-1.59417 -2.16434,1.1594 c 0,0 -11.76862,-11.01439 -11.90389,5.21734 z"
         id="path4237"
         inkscape:connector-curvature="0"
         transform="translate(-14.849242,-31.112698)" />
      <path
         style="fill:none;fill-rule:evenodd;stroke:#000000;stroke-width:0.80484504;stroke-linecap:butt;stroke-linejoin:miter;stroke-miterlimit:4;stroke-dasharray:none;stroke-opacity:1"
         d="m 248.46908,346.42906 c 0,0 -28.28427,4.94975 -33.58757,17.67767"
         id="path4265"
         inkscape:connector-curvature="0"
         transform="translate(-14.849242,-31.112698)" />
      <path
         style="fill:none;fill-rule:evenodd;stroke:#000000;stroke-width:0.80484504;stroke-linecap:butt;stroke-linejoin:miter;stroke-miterlimit:4;stroke-dasharray:none;stroke-opacity:1"
         d="m 249.17619,348.19683 c 0,0 -28.28427,2.82842 -35.00179,19.44543"
         id="path4267"
         inkscape:connector-curvature="0"
         transform="translate(-14.849242,-31.112698)" />
      <path
         style="fill:none;fill-rule:evenodd;stroke:#000000;stroke-width:0.80484504;stroke-linecap:butt;stroke-linejoin:miter;stroke-miterlimit:4;stroke-dasharray:none;stroke-opacity:1"
         d="m 247.05487,346.42906 c 0,0 -30.05204,-4.5962 -35.70889,13.78858"
         id="path4269"
         inkscape:connector-curvature="0"
         transform="translate(-14.849242,-31.112698)" />
      <path
         style="fill:none;fill-rule:evenodd;stroke:#000000;stroke-width:0.80484504;stroke-linecap:butt;stroke-linejoin:miter;stroke-miterlimit:4;stroke-dasharray:none;stroke-opacity:1"
         d="m 279.93534,334.05469 c 0,0 12.02081,-13.43503 29.34493,-16.61701"
         id="path4271"
         inkscape:connector-curvature="0"
         transform="translate(-14.849242,-31.112698)" />
      <path
         style="fill:none;fill-rule:evenodd;stroke:#000000;stroke-width:0.80484504;stroke-linecap:butt;stroke-linejoin:miter;stroke-miterlimit:4;stroke-dasharray:none;stroke-opacity:1"
         d="m 281.34955,337.23667 c 0,0 24.74874,-18.03122 39.24443,-18.03122"
         id="path4273"
         inkscape:connector-curvature="0"
         transform="translate(-14.849242,-31.112698)" />
      <path
         style="fill:none;fill-rule:evenodd;stroke:#000000;stroke-width:0.80484504;stroke-linecap:butt;stroke-linejoin:miter;stroke-miterlimit:4;stroke-dasharray:none;stroke-opacity:1"
         d="m 280.53889,337.02956 c 0,0 11.66726,-14.14213 34.64823,-20.50609"
         id="path4275"
         inkscape:connector-curvature="0"
         transform="translate(-14.849242,-31.112698)" />
      <path
         style="fill:none;fill-rule:evenodd;stroke:#000000;stroke-width:0.80484504;stroke-linecap:butt;stroke-linejoin:miter;stroke-miterlimit:4;stroke-dasharray:none;stroke-opacity:1"
         d="m 282.41021,339.00444 c 0,0 17.67767,-12.72792 36.416,-17.32412"
         id="path4277"
         inkscape:connector-curvature="0"
         transform="translate(-14.849242,-31.112698)" />
      <path
         sodipodi:nodetypes="ccccc"
         inkscape:connector-curvature="0"
         id="path4369"
         d="m 216.08291,290.37228 c 0,0 -0.58313,2.45847 2.41687,2.95847 0,0 4.625,1 4.375,-3.25 0,0 0.25,-2.5 -2.39466,-2.96107 0,0 -3.55519,-1.19851 -4.39721,3.2526 z"
         style="fill:#ffffff;fill-opacity:1;fill-rule:evenodd;stroke:#000000;stroke-width:1.60969007px;stroke-linecap:butt;stroke-linejoin:miter;stroke-opacity:1" />
      <path
         sodipodi:nodetypes="ccccc"
         inkscape:connector-curvature="0"
         id="path4369-6"
         d="m 253.14491,273.36152 c 0,0 -0.58313,2.45847 2.41687,2.95847 0,0 4.625,1 4.375,-3.25 0,0 0.25,-2.5 -2.39466,-2.96107 0,0 -3.55519,-1.19851 -4.39721,3.2526 z"
         style="fill:#ffffff;fill-opacity:1;fill-rule:evenodd;stroke:#000000;stroke-width:1.60969007px;stroke-linecap:butt;stroke-linejoin:miter;stroke-opacity:1" />
    </g>
  </g>
</svg>
